<svg width="316" height="116" viewBox="0 0 316 116" fill="none" xmlns="http://www.w3.org/2000/svg">
<g filter="url(#filter0_d_7751_10)">
<rect x="8" y="20" width="300" height="84" rx="8" fill="#297C6B"/>
<path d="M158 11L169 20H147L158 11Z" fill="#297C6B"/>
</g>
<path d="M37.975 35.9L34.907 45H33.893L31.228 37.239L28.55 45H27.549L24.481 35.9H25.469L28.095 43.726L30.812 35.9H31.709L34.387 43.765L37.052 35.9H37.975ZM44.9773 41.867H39.2573C39.3093 42.5777 39.5823 43.154 40.0763 43.596C40.5703 44.0293 41.1943 44.246 41.9483 44.246C42.373 44.246 42.763 44.1723 43.1183 44.025C43.4737 43.869 43.7813 43.6437 44.0413 43.349L44.5613 43.947C44.258 44.311 43.8767 44.5883 43.4173 44.779C42.9667 44.9697 42.4683 45.065 41.9223 45.065C41.2203 45.065 40.5963 44.9177 40.0503 44.623C39.513 44.3197 39.0927 43.9037 38.7893 43.375C38.486 42.8463 38.3343 42.2483 38.3343 41.581C38.3343 40.9137 38.4773 40.3157 38.7633 39.787C39.058 39.2583 39.4567 38.8467 39.9593 38.552C40.4707 38.2573 41.0427 38.11 41.6753 38.11C42.308 38.11 42.8757 38.2573 43.3783 38.552C43.881 38.8467 44.2753 39.2583 44.5613 39.787C44.8473 40.307 44.9903 40.905 44.9903 41.581L44.9773 41.867ZM41.6753 38.903C41.0167 38.903 40.462 39.1153 40.0113 39.54C39.5693 39.956 39.318 40.502 39.2573 41.178H44.1063C44.0457 40.502 43.79 39.956 43.3393 39.54C42.8973 39.1153 42.3427 38.903 41.6753 38.903ZM46.9349 35.289C47.1343 35.289 47.2989 35.3583 47.4289 35.497C47.5589 35.627 47.6239 35.7917 47.6239 35.991C47.6239 36.095 47.6066 36.2077 47.5719 36.329C47.5459 36.4417 47.5069 36.576 47.4549 36.732L46.8959 38.526H46.2719L46.7269 36.654C46.5796 36.6107 46.4626 36.5327 46.3759 36.42C46.2893 36.2987 46.2459 36.1557 46.2459 35.991C46.2459 35.783 46.3109 35.614 46.4409 35.484C46.5709 35.354 46.7356 35.289 46.9349 35.289ZM50.4698 39.501C50.6865 39.0417 51.0072 38.695 51.4318 38.461C51.8652 38.227 52.3982 38.11 53.0308 38.11V39.007L52.8098 38.994C52.0905 38.994 51.5272 39.215 51.1198 39.657C50.7125 40.099 50.5088 40.7187 50.5088 41.516V45H49.5858V38.162H50.4698V39.501ZM60.5926 41.867H54.8726C54.9246 42.5777 55.1976 43.154 55.6916 43.596C56.1856 44.0293 56.8096 44.246 57.5636 44.246C57.9882 44.246 58.3782 44.1723 58.7336 44.025C59.0889 43.869 59.3966 43.6437 59.6566 43.349L60.1766 43.947C59.8732 44.311 59.4919 44.5883 59.0326 44.779C58.5819 44.9697 58.0836 45.065 57.5376 45.065C56.8356 45.065 56.2116 44.9177 55.6656 44.623C55.1282 44.3197 54.7079 43.9037 54.4046 43.375C54.1012 42.8463 53.9496 42.2483 53.9496 41.581C53.9496 40.9137 54.0926 40.3157 54.3786 39.787C54.6732 39.2583 55.0719 38.8467 55.5746 38.552C56.0859 38.2573 56.6579 38.11 57.2906 38.11C57.9232 38.11 58.4909 38.2573 58.9936 38.552C59.4962 38.8467 59.8906 39.2583 60.1766 39.787C60.4626 40.307 60.6056 40.905 60.6056 41.581L60.5926 41.867ZM57.2906 38.903C56.6319 38.903 56.0772 39.1153 55.6266 39.54C55.1846 39.956 54.9332 40.502 54.8726 41.178H59.7216C59.6609 40.502 59.4052 39.956 58.9546 39.54C58.5126 39.1153 57.9579 38.903 57.2906 38.903ZM71.8406 41.867H66.1206C66.1726 42.5777 66.4456 43.154 66.9396 43.596C67.4336 44.0293 68.0576 44.246 68.8116 44.246C69.2363 44.246 69.6263 44.1723 69.9816 44.025C70.3369 43.869 70.6446 43.6437 70.9046 43.349L71.4246 43.947C71.1213 44.311 70.7399 44.5883 70.2806 44.779C69.8299 44.9697 69.3316 45.065 68.7856 45.065C68.0836 45.065 67.4596 44.9177 66.9136 44.623C66.3763 44.3197 65.9559 43.9037 65.6526 43.375C65.3493 42.8463 65.1976 42.2483 65.1976 41.581C65.1976 40.9137 65.3406 40.3157 65.6266 39.787C65.9213 39.2583 66.3199 38.8467 66.8226 38.552C67.3339 38.2573 67.9059 38.11 68.5386 38.11C69.1713 38.11 69.7389 38.2573 70.2416 38.552C70.7443 38.8467 71.1386 39.2583 71.4246 39.787C71.7106 40.307 71.8536 40.905 71.8536 41.581L71.8406 41.867ZM68.5386 38.903C67.8799 38.903 67.3253 39.1153 66.8746 39.54C66.4326 39.956 66.1813 40.502 66.1206 41.178H70.9696C70.9089 40.502 70.6533 39.956 70.2026 39.54C69.7606 39.1153 69.2059 38.903 68.5386 38.903ZM77.8969 45L75.7259 42.14L73.5419 45H72.5019L75.2059 41.49L72.6319 38.162H73.6719L75.7259 40.84L77.7799 38.162H78.7939L76.2199 41.49L78.9499 45H77.8969ZM84.0092 38.11C84.6506 38.11 85.2312 38.2573 85.7512 38.552C86.2712 38.838 86.6786 39.2453 86.9732 39.774C87.2679 40.3027 87.4152 40.905 87.4152 41.581C87.4152 42.2657 87.2679 42.8723 86.9732 43.401C86.6786 43.9297 86.2712 44.3413 85.7512 44.636C85.2399 44.922 84.6592 45.065 84.0092 45.065C83.4546 45.065 82.9519 44.9523 82.5012 44.727C82.0592 44.493 81.6952 44.155 81.4092 43.713V47.522H80.4862V38.162H81.3702V39.514C81.6476 39.0633 82.0116 38.7167 82.4622 38.474C82.9216 38.2313 83.4372 38.11 84.0092 38.11ZM83.9442 44.246C84.4209 44.246 84.8542 44.1377 85.2442 43.921C85.6342 43.6957 85.9376 43.3793 86.1542 42.972C86.3796 42.5647 86.4922 42.101 86.4922 41.581C86.4922 41.061 86.3796 40.6017 86.1542 40.203C85.9376 39.7957 85.6342 39.4793 85.2442 39.254C84.8542 39.0287 84.4209 38.916 83.9442 38.916C83.4589 38.916 83.0212 39.0287 82.6312 39.254C82.2499 39.4793 81.9466 39.7957 81.7212 40.203C81.5046 40.6017 81.3962 41.061 81.3962 41.581C81.3962 42.101 81.5046 42.5647 81.7212 42.972C81.9466 43.3793 82.2499 43.6957 82.6312 43.921C83.0212 44.1377 83.4589 44.246 83.9442 44.246ZM95.2508 41.867H89.5308C89.5828 42.5777 89.8558 43.154 90.3498 43.596C90.8438 44.0293 91.4678 44.246 92.2218 44.246C92.6464 44.246 93.0364 44.1723 93.3918 44.025C93.7471 43.869 94.0548 43.6437 94.3148 43.349L94.8348 43.947C94.5314 44.311 94.1501 44.5883 93.6908 44.779C93.2401 44.9697 92.7418 45.065 92.1958 45.065C91.4938 45.065 90.8698 44.9177 90.3238 44.623C89.7864 44.3197 89.3661 43.9037 89.0628 43.375C88.7594 42.8463 88.6078 42.2483 88.6078 41.581C88.6078 40.9137 88.7508 40.3157 89.0368 39.787C89.3314 39.2583 89.7301 38.8467 90.2328 38.552C90.7441 38.2573 91.3161 38.11 91.9488 38.11C92.5814 38.11 93.1491 38.2573 93.6518 38.552C94.1544 38.8467 94.5488 39.2583 94.8348 39.787C95.1208 40.307 95.2638 40.905 95.2638 41.581L95.2508 41.867ZM91.9488 38.903C91.2901 38.903 90.7354 39.1153 90.2848 39.54C89.8428 39.956 89.5914 40.502 89.5308 41.178H94.3798C94.3191 40.502 94.0634 39.956 93.6128 39.54C93.1708 39.1153 92.6161 38.903 91.9488 38.903ZM98.0265 39.501C98.2431 39.0417 98.5638 38.695 98.9885 38.461C99.4218 38.227 99.9548 38.11 100.587 38.11V39.007L100.366 38.994C99.6471 38.994 99.0838 39.215 98.6765 39.657C98.2691 40.099 98.0655 40.7187 98.0655 41.516V45H97.1425V38.162H98.0265V39.501ZM102.259 38.162H103.182V45H102.259V38.162ZM102.727 36.667C102.536 36.667 102.376 36.602 102.246 36.472C102.116 36.342 102.051 36.186 102.051 36.004C102.051 35.8307 102.116 35.679 102.246 35.549C102.376 35.419 102.536 35.354 102.727 35.354C102.917 35.354 103.078 35.419 103.208 35.549C103.338 35.6703 103.403 35.8177 103.403 35.991C103.403 36.1817 103.338 36.342 103.208 36.472C103.078 36.602 102.917 36.667 102.727 36.667ZM111.704 41.867H105.984C106.036 42.5777 106.309 43.154 106.803 43.596C107.297 44.0293 107.921 44.246 108.675 44.246C109.1 44.246 109.49 44.1723 109.845 44.025C110.2 43.869 110.508 43.6437 110.768 43.349L111.288 43.947C110.985 44.311 110.603 44.5883 110.144 44.779C109.693 44.9697 109.195 45.065 108.649 45.065C107.947 45.065 107.323 44.9177 106.777 44.623C106.24 44.3197 105.819 43.9037 105.516 43.375C105.213 42.8463 105.061 42.2483 105.061 41.581C105.061 40.9137 105.204 40.3157 105.49 39.787C105.785 39.2583 106.183 38.8467 106.686 38.552C107.197 38.2573 107.769 38.11 108.402 38.11C109.035 38.11 109.602 38.2573 110.105 38.552C110.608 38.8467 111.002 39.2583 111.288 39.787C111.574 40.307 111.717 40.905 111.717 41.581L111.704 41.867ZM108.402 38.903C107.743 38.903 107.189 39.1153 106.738 39.54C106.296 39.956 106.045 40.502 105.984 41.178H110.833C110.772 40.502 110.517 39.956 110.066 39.54C109.624 39.1153 109.069 38.903 108.402 38.903ZM117.08 38.11C117.938 38.11 118.618 38.3613 119.121 38.864C119.632 39.358 119.888 40.0817 119.888 41.035V45H118.965V41.126C118.965 40.4153 118.787 39.8737 118.432 39.501C118.076 39.1283 117.569 38.942 116.911 38.942C116.174 38.942 115.589 39.163 115.156 39.605C114.731 40.0383 114.519 40.6407 114.519 41.412V45H113.596V38.162H114.48V39.423C114.731 39.007 115.078 38.6863 115.52 38.461C115.97 38.227 116.49 38.11 117.08 38.11ZM125.253 45.065C124.577 45.065 123.97 44.9177 123.433 44.623C122.904 44.3283 122.488 43.9167 122.185 43.388C121.882 42.8507 121.73 42.2483 121.73 41.581C121.73 40.9137 121.882 40.3157 122.185 39.787C122.488 39.2583 122.904 38.8467 123.433 38.552C123.97 38.2573 124.577 38.11 125.253 38.11C125.842 38.11 126.367 38.227 126.826 38.461C127.294 38.6863 127.662 39.02 127.931 39.462L127.242 39.93C127.017 39.592 126.731 39.3407 126.384 39.176C126.037 39.0027 125.66 38.916 125.253 38.916C124.759 38.916 124.313 39.0287 123.914 39.254C123.524 39.4707 123.216 39.7827 122.991 40.19C122.774 40.5973 122.666 41.061 122.666 41.581C122.666 42.1097 122.774 42.5777 122.991 42.985C123.216 43.3837 123.524 43.6957 123.914 43.921C124.313 44.1377 124.759 44.246 125.253 44.246C125.66 44.246 126.037 44.1637 126.384 43.999C126.731 43.8343 127.017 43.583 127.242 43.245L127.931 43.713C127.662 44.155 127.294 44.493 126.826 44.727C126.358 44.9523 125.834 45.065 125.253 45.065ZM135.584 41.867H129.864C129.916 42.5777 130.189 43.154 130.683 43.596C131.177 44.0293 131.801 44.246 132.555 44.246C132.979 44.246 133.369 44.1723 133.725 44.025C134.08 43.869 134.388 43.6437 134.648 43.349L135.168 43.947C134.864 44.311 134.483 44.5883 134.024 44.779C133.573 44.9697 133.075 45.065 132.529 45.065C131.827 45.065 131.203 44.9177 130.657 44.623C130.119 44.3197 129.699 43.9037 129.396 43.375C129.092 42.8463 128.941 42.2483 128.941 41.581C128.941 40.9137 129.084 40.3157 129.37 39.787C129.664 39.2583 130.063 38.8467 130.566 38.552C131.077 38.2573 131.649 38.11 132.282 38.11C132.914 38.11 133.482 38.2573 133.985 38.552C134.487 38.8467 134.882 39.2583 135.168 39.787C135.454 40.307 135.597 40.905 135.597 41.581L135.584 41.867ZM132.282 38.903C131.623 38.903 131.068 39.1153 130.618 39.54C130.176 39.956 129.924 40.502 129.864 41.178H134.713C134.652 40.502 134.396 39.956 133.946 39.54C133.504 39.1153 132.949 38.903 132.282 38.903ZM143.715 35.354V45H142.831V43.648C142.554 44.1073 142.186 44.4583 141.726 44.701C141.276 44.9437 140.764 45.065 140.192 45.065C139.551 45.065 138.97 44.9177 138.45 44.623C137.93 44.3283 137.523 43.9167 137.228 43.388C136.934 42.8593 136.786 42.257 136.786 41.581C136.786 40.905 136.934 40.3027 137.228 39.774C137.523 39.2453 137.93 38.838 138.45 38.552C138.97 38.2573 139.551 38.11 140.192 38.11C140.747 38.11 141.245 38.227 141.687 38.461C142.138 38.6863 142.506 39.02 142.792 39.462V35.354H143.715ZM140.27 44.246C140.747 44.246 141.176 44.1377 141.557 43.921C141.947 43.6957 142.251 43.3793 142.467 42.972C142.693 42.5647 142.805 42.101 142.805 41.581C142.805 41.061 142.693 40.5973 142.467 40.19C142.251 39.7827 141.947 39.4707 141.557 39.254C141.176 39.0287 140.747 38.916 140.27 38.916C139.785 38.916 139.347 39.0287 138.957 39.254C138.576 39.4707 138.273 39.7827 138.047 40.19C137.831 40.5973 137.722 41.061 137.722 41.581C137.722 42.101 137.831 42.5647 138.047 42.972C138.273 43.3793 138.576 43.6957 138.957 43.921C139.347 44.1377 139.785 44.246 140.27 44.246ZM149.688 38.162H150.611V45H149.688V38.162ZM150.156 36.667C149.966 36.667 149.805 36.602 149.675 36.472C149.545 36.342 149.48 36.186 149.48 36.004C149.48 35.8307 149.545 35.679 149.675 35.549C149.805 35.419 149.966 35.354 150.156 35.354C150.347 35.354 150.507 35.419 150.637 35.549C150.767 35.6703 150.832 35.8177 150.832 35.991C150.832 36.1817 150.767 36.342 150.637 36.472C150.507 36.602 150.347 36.667 150.156 36.667ZM156.664 38.11C157.522 38.11 158.202 38.3613 158.705 38.864C159.216 39.358 159.472 40.0817 159.472 41.035V45H158.549V41.126C158.549 40.4153 158.371 39.8737 158.016 39.501C157.66 39.1283 157.153 38.942 156.495 38.942C155.758 38.942 155.173 39.163 154.74 39.605C154.315 40.0383 154.103 40.6407 154.103 41.412V45H153.18V38.162H154.064V39.423C154.315 39.007 154.662 38.6863 155.104 38.461C155.554 38.227 156.074 38.11 156.664 38.11ZM168.175 45.065C167.516 45.065 166.922 44.9177 166.394 44.623C165.865 44.3197 165.449 43.9037 165.146 43.375C164.842 42.8463 164.691 42.2483 164.691 41.581C164.691 40.9137 164.842 40.3157 165.146 39.787C165.449 39.2583 165.865 38.8467 166.394 38.552C166.922 38.2573 167.516 38.11 168.175 38.11C168.833 38.11 169.427 38.2573 169.956 38.552C170.484 38.8467 170.896 39.2583 171.191 39.787C171.494 40.3157 171.646 40.9137 171.646 41.581C171.646 42.2483 171.494 42.8463 171.191 43.375C170.896 43.9037 170.484 44.3197 169.956 44.623C169.427 44.9177 168.833 45.065 168.175 45.065ZM168.175 44.246C168.66 44.246 169.093 44.1377 169.475 43.921C169.865 43.6957 170.168 43.3793 170.385 42.972C170.601 42.5647 170.71 42.101 170.71 41.581C170.71 41.061 170.601 40.5973 170.385 40.19C170.168 39.7827 169.865 39.4707 169.475 39.254C169.093 39.0287 168.66 38.916 168.175 38.916C167.689 38.916 167.252 39.0287 166.862 39.254C166.48 39.4707 166.177 39.7827 165.952 40.19C165.735 40.5973 165.627 41.061 165.627 41.581C165.627 42.101 165.735 42.5647 165.952 42.972C166.177 43.3793 166.48 43.6957 166.862 43.921C167.252 44.1377 167.689 44.246 168.175 44.246ZM179.692 38.162V45H178.808V43.752C178.565 44.168 178.232 44.493 177.807 44.727C177.382 44.9523 176.897 45.065 176.351 45.065C175.458 45.065 174.752 44.818 174.232 44.324C173.721 43.8213 173.465 43.089 173.465 42.127V38.162H174.388V42.036C174.388 42.7553 174.566 43.3013 174.921 43.674C175.276 44.0467 175.783 44.233 176.442 44.233C177.161 44.233 177.729 44.0163 178.145 43.583C178.561 43.141 178.769 42.53 178.769 41.75V38.162H179.692ZM183.161 39.501C183.378 39.0417 183.699 38.695 184.123 38.461C184.557 38.227 185.09 38.11 185.722 38.11V39.007L185.501 38.994C184.782 38.994 184.219 39.215 183.811 39.657C183.404 40.099 183.2 40.7187 183.2 41.516V45H182.277V38.162H183.161V39.501ZM190.897 38.162H191.82V45H190.897V38.162ZM191.365 36.667C191.175 36.667 191.014 36.602 190.884 36.472C190.754 36.342 190.689 36.186 190.689 36.004C190.689 35.8307 190.754 35.679 190.884 35.549C191.014 35.419 191.175 35.354 191.365 35.354C191.556 35.354 191.716 35.419 191.846 35.549C191.976 35.6703 192.041 35.8177 192.041 35.991C192.041 36.1817 191.976 36.342 191.846 36.472C191.716 36.602 191.556 36.667 191.365 36.667ZM197.873 38.11C198.731 38.11 199.411 38.3613 199.914 38.864C200.425 39.358 200.681 40.0817 200.681 41.035V45H199.758V41.126C199.758 40.4153 199.58 39.8737 199.225 39.501C198.869 39.1283 198.362 38.942 197.704 38.942C196.967 38.942 196.382 39.163 195.949 39.605C195.524 40.0383 195.312 40.6407 195.312 41.412V45H194.389V38.162H195.273V39.423C195.524 39.007 195.871 38.6863 196.313 38.461C196.763 38.227 197.283 38.11 197.873 38.11ZM209.452 35.354V45H208.568V43.648C208.29 44.1073 207.922 44.4583 207.463 44.701C207.012 44.9437 206.501 45.065 205.929 45.065C205.287 45.065 204.707 44.9177 204.187 44.623C203.667 44.3283 203.259 43.9167 202.965 43.388C202.67 42.8593 202.523 42.257 202.523 41.581C202.523 40.905 202.67 40.3027 202.965 39.774C203.259 39.2453 203.667 38.838 204.187 38.552C204.707 38.2573 205.287 38.11 205.929 38.11C206.483 38.11 206.982 38.227 207.424 38.461C207.874 38.6863 208.243 39.02 208.529 39.462V35.354H209.452ZM206.007 44.246C206.483 44.246 206.912 44.1377 207.294 43.921C207.684 43.6957 207.987 43.3793 208.204 42.972C208.429 42.5647 208.542 42.101 208.542 41.581C208.542 41.061 208.429 40.5973 208.204 40.19C207.987 39.7827 207.684 39.4707 207.294 39.254C206.912 39.0287 206.483 38.916 206.007 38.916C205.521 38.916 205.084 39.0287 204.694 39.254C204.312 39.4707 204.009 39.7827 203.784 40.19C203.567 40.5973 203.459 41.061 203.459 41.581C203.459 42.101 203.567 42.5647 203.784 42.972C204.009 43.3793 204.312 43.6957 204.694 43.921C205.084 44.1377 205.521 44.246 206.007 44.246ZM212.022 38.162H212.945V45H212.022V38.162ZM212.49 36.667C212.3 36.667 212.139 36.602 212.009 36.472C211.879 36.342 211.814 36.186 211.814 36.004C211.814 35.8307 211.879 35.679 212.009 35.549C212.139 35.419 212.3 35.354 212.49 35.354C212.681 35.354 212.841 35.419 212.971 35.549C213.101 35.6703 213.166 35.8177 213.166 35.991C213.166 36.1817 213.101 36.342 212.971 36.472C212.841 36.602 212.681 36.667 212.49 36.667ZM221.26 38.162L218.218 45H217.269L214.24 38.162H215.202L217.763 43.986L220.35 38.162H221.26ZM222.559 38.162H223.482V45H222.559V38.162ZM223.027 36.667C222.837 36.667 222.676 36.602 222.546 36.472C222.416 36.342 222.351 36.186 222.351 36.004C222.351 35.8307 222.416 35.679 222.546 35.549C222.676 35.419 222.837 35.354 223.027 35.354C223.218 35.354 223.378 35.419 223.508 35.549C223.638 35.6703 223.703 35.8177 223.703 35.991C223.703 36.1817 223.638 36.342 223.508 36.472C223.378 36.602 223.218 36.667 223.027 36.667ZM232.291 35.354V45H231.407V43.648C231.129 44.1073 230.761 44.4583 230.302 44.701C229.851 44.9437 229.34 45.065 228.768 45.065C228.126 45.065 227.546 44.9177 227.026 44.623C226.506 44.3283 226.098 43.9167 225.804 43.388C225.509 42.8593 225.362 42.257 225.362 41.581C225.362 40.905 225.509 40.3027 225.804 39.774C226.098 39.2453 226.506 38.838 227.026 38.552C227.546 38.2573 228.126 38.11 228.768 38.11C229.322 38.11 229.821 38.227 230.263 38.461C230.713 38.6863 231.082 39.02 231.368 39.462V35.354H232.291ZM228.846 44.246C229.322 44.246 229.751 44.1377 230.133 43.921C230.523 43.6957 230.826 43.3793 231.043 42.972C231.268 42.5647 231.381 42.101 231.381 41.581C231.381 41.061 231.268 40.5973 231.043 40.19C230.826 39.7827 230.523 39.4707 230.133 39.254C229.751 39.0287 229.322 38.916 228.846 38.916C228.36 38.916 227.923 39.0287 227.533 39.254C227.151 39.4707 226.848 39.7827 226.623 40.19C226.406 40.5973 226.298 41.061 226.298 41.581C226.298 42.101 226.406 42.5647 226.623 42.972C226.848 43.3793 227.151 43.6957 227.533 43.921C227.923 44.1377 228.36 44.246 228.846 44.246ZM241.023 38.162V45H240.139V43.752C239.897 44.168 239.563 44.493 239.138 44.727C238.714 44.9523 238.228 45.065 237.682 45.065C236.79 45.065 236.083 44.818 235.563 44.324C235.052 43.8213 234.796 43.089 234.796 42.127V38.162H235.719V42.036C235.719 42.7553 235.897 43.3013 236.252 43.674C236.608 44.0467 237.115 44.233 237.773 44.233C238.493 44.233 239.06 44.0163 239.476 43.583C239.892 43.141 240.1 42.53 240.1 41.75V38.162H241.023ZM246 38.11C246.893 38.11 247.578 38.3353 248.054 38.786C248.531 39.228 248.769 39.8867 248.769 40.762V45H247.885V43.934C247.677 44.2893 247.37 44.5667 246.962 44.766C246.564 44.9653 246.087 45.065 245.532 45.065C244.77 45.065 244.163 44.883 243.712 44.519C243.262 44.155 243.036 43.674 243.036 43.076C243.036 42.4953 243.244 42.0273 243.66 41.672C244.085 41.3167 244.757 41.139 245.675 41.139H247.846V40.723C247.846 40.1337 247.682 39.6873 247.352 39.384C247.023 39.072 246.542 38.916 245.909 38.916C245.476 38.916 245.06 38.9897 244.661 39.137C244.263 39.2757 243.92 39.4707 243.634 39.722L243.218 39.033C243.565 38.7383 243.981 38.513 244.466 38.357C244.952 38.1923 245.463 38.11 246 38.11ZM245.675 44.337C246.195 44.337 246.642 44.22 247.014 43.986C247.387 43.7433 247.664 43.3967 247.846 42.946V41.828H245.701C244.531 41.828 243.946 42.2353 243.946 43.05C243.946 43.4487 244.098 43.765 244.401 43.999C244.705 44.2243 245.129 44.337 245.675 44.337ZM251.276 35.354H252.199V45H251.276V35.354ZM28.121 65.065C27.445 65.065 26.8383 64.9177 26.301 64.623C25.7723 64.3283 25.3563 63.9167 25.053 63.388C24.7497 62.8507 24.598 62.2483 24.598 61.581C24.598 60.9137 24.7497 60.3157 25.053 59.787C25.3563 59.2583 25.7723 58.8467 26.301 58.552C26.8383 58.2573 27.445 58.11 28.121 58.11C28.7103 58.11 29.2347 58.227 29.694 58.461C30.162 58.6863 30.5303 59.02 30.799 59.462L30.11 59.93C29.8847 59.592 29.5987 59.3407 29.252 59.176C28.9053 59.0027 28.5283 58.916 28.121 58.916C27.627 58.916 27.1807 59.0287 26.782 59.254C26.392 59.4707 26.0843 59.7827 25.859 60.19C25.6423 60.5973 25.534 61.061 25.534 61.581C25.534 62.1097 25.6423 62.5777 25.859 62.985C26.0843 63.3837 26.392 63.6957 26.782 63.921C27.1807 64.1377 27.627 64.246 28.121 64.246C28.5283 64.246 28.9053 64.1637 29.252 63.999C29.5987 63.8343 29.8847 63.583 30.11 63.245L30.799 63.713C30.5303 64.155 30.162 64.493 29.694 64.727C29.226 64.9523 28.7017 65.065 28.121 65.065ZM33.4962 59.501C33.7129 59.0417 34.0335 58.695 34.4582 58.461C34.8915 58.227 35.4245 58.11 36.0572 58.11V59.007L35.8362 58.994C35.1169 58.994 34.5535 59.215 34.1462 59.657C33.7389 60.099 33.5352 60.7187 33.5352 61.516V65H32.6122V58.162H33.4962V59.501ZM40.1077 58.11C41.0004 58.11 41.685 58.3353 42.1617 58.786C42.6384 59.228 42.8767 59.8867 42.8767 60.762V65H41.9927V63.934C41.7847 64.2893 41.477 64.5667 41.0697 64.766C40.671 64.9653 40.1944 65.065 39.6397 65.065C38.877 65.065 38.2704 64.883 37.8197 64.519C37.369 64.155 37.1437 63.674 37.1437 63.076C37.1437 62.4953 37.3517 62.0273 37.7677 61.672C38.1924 61.3167 38.864 61.139 39.7827 61.139H41.9537V60.723C41.9537 60.1337 41.789 59.6873 41.4597 59.384C41.1304 59.072 40.6494 58.916 40.0167 58.916C39.5834 58.916 39.1674 58.9897 38.7687 59.137C38.37 59.2757 38.0277 59.4707 37.7417 59.722L37.3257 59.033C37.6724 58.7383 38.0884 58.513 38.5737 58.357C39.059 58.1923 39.5704 58.11 40.1077 58.11ZM39.7827 64.337C40.3027 64.337 40.749 64.22 41.1217 63.986C41.4944 63.7433 41.7717 63.3967 41.9537 62.946V61.828H39.8087C38.6387 61.828 38.0537 62.2353 38.0537 63.05C38.0537 63.4487 38.2054 63.765 38.5087 63.999C38.812 64.2243 39.2367 64.337 39.7827 64.337ZM47.6457 56.069C47.247 56.069 46.9437 56.1773 46.7357 56.394C46.5363 56.6107 46.4367 56.9313 46.4367 57.356V58.162H48.5427V58.942H46.4627V65H45.5397V58.942H44.3177V58.162H45.5397V57.317C45.5397 56.693 45.7173 56.199 46.0727 55.835C46.4367 55.471 46.948 55.289 47.6067 55.289C47.8667 55.289 48.118 55.328 48.3607 55.406C48.6033 55.4753 48.807 55.5793 48.9717 55.718L48.6597 56.407C48.391 56.1817 48.053 56.069 47.6457 56.069ZM53.39 64.584C53.2166 64.74 53 64.8613 52.74 64.948C52.4886 65.026 52.2243 65.065 51.947 65.065C51.3056 65.065 50.8116 64.8917 50.465 64.545C50.1183 64.1983 49.945 63.7087 49.945 63.076V58.942H48.723V58.162H49.945V56.667H50.868V58.162H52.948V58.942H50.868V63.024C50.868 63.4313 50.9676 63.7433 51.167 63.96C51.375 64.168 51.6696 64.272 52.051 64.272C52.2416 64.272 52.4236 64.2417 52.597 64.181C52.779 64.1203 52.935 64.0337 53.065 63.921L53.39 64.584ZM56.9032 65.065C56.3485 65.065 55.8155 64.987 55.3042 64.831C54.8015 64.6663 54.4072 64.4627 54.1212 64.22L54.5372 63.492C54.8232 63.7173 55.1829 63.9037 55.6162 64.051C56.0495 64.1897 56.5002 64.259 56.9682 64.259C57.5922 64.259 58.0515 64.1637 58.3462 63.973C58.6495 63.7737 58.8012 63.4963 58.8012 63.141C58.8012 62.8897 58.7189 62.6947 58.5542 62.556C58.3895 62.4087 58.1815 62.3003 57.9302 62.231C57.6789 62.153 57.3452 62.0793 56.9292 62.01C56.3745 61.906 55.9282 61.802 55.5902 61.698C55.2522 61.5853 54.9619 61.399 54.7192 61.139C54.4852 60.879 54.3682 60.5193 54.3682 60.06C54.3682 59.488 54.6065 59.02 55.0832 58.656C55.5599 58.292 56.2229 58.11 57.0722 58.11C57.5142 58.11 57.9562 58.1707 58.3982 58.292C58.8402 58.4047 59.2042 58.5563 59.4902 58.747L59.0872 59.488C58.5239 59.098 57.8522 58.903 57.0722 58.903C56.4829 58.903 56.0365 59.007 55.7332 59.215C55.4385 59.423 55.2912 59.696 55.2912 60.034C55.2912 60.294 55.3735 60.502 55.5382 60.658C55.7115 60.814 55.9239 60.931 56.1752 61.009C56.4265 61.0783 56.7732 61.152 57.2152 61.23C57.7612 61.334 58.1989 61.438 58.5282 61.542C58.8575 61.646 59.1392 61.8237 59.3732 62.075C59.6072 62.3263 59.7242 62.673 59.7242 63.115C59.7242 63.713 59.4729 64.1897 58.9702 64.545C58.4762 64.8917 57.7872 65.065 56.9032 65.065ZM67.2249 58.11C68.1176 58.11 68.8022 58.3353 69.2789 58.786C69.7556 59.228 69.9939 59.8867 69.9939 60.762V65H69.1099V63.934C68.9019 64.2893 68.5942 64.5667 68.1869 64.766C67.7882 64.9653 67.3116 65.065 66.7569 65.065C65.9942 65.065 65.3876 64.883 64.9369 64.519C64.4862 64.155 64.2609 63.674 64.2609 63.076C64.2609 62.4953 64.4689 62.0273 64.8849 61.672C65.3096 61.3167 65.9812 61.139 66.8999 61.139H69.0709V60.723C69.0709 60.1337 68.9062 59.6873 68.5769 59.384C68.2476 59.072 67.7666 58.916 67.1339 58.916C66.7006 58.916 66.2846 58.9897 65.8859 59.137C65.4872 59.2757 65.1449 59.4707 64.8589 59.722L64.4429 59.033C64.7896 58.7383 65.2056 58.513 65.6909 58.357C66.1762 58.1923 66.6876 58.11 67.2249 58.11ZM66.8999 64.337C67.4199 64.337 67.8662 64.22 68.2389 63.986C68.6116 63.7433 68.8889 63.3967 69.0709 62.946V61.828H66.9259C65.7559 61.828 65.1709 62.2353 65.1709 63.05C65.1709 63.4487 65.3226 63.765 65.6259 63.999C65.9292 64.2243 66.3539 64.337 66.8999 64.337ZM75.9849 58.11C76.8429 58.11 77.5232 58.3613 78.0259 58.864C78.5372 59.358 78.7929 60.0817 78.7929 61.035V65H77.8699V61.126C77.8699 60.4153 77.6922 59.8737 77.3369 59.501C76.9815 59.1283 76.4745 58.942 75.8159 58.942C75.0792 58.942 74.4942 59.163 74.0609 59.605C73.6362 60.0383 73.4239 60.6407 73.4239 61.412V65H72.5009V58.162H73.3849V59.423C73.6362 59.007 73.9829 58.6863 74.4249 58.461C74.8755 58.227 75.3955 58.11 75.9849 58.11ZM87.5641 55.354V65H86.6801V63.648C86.4028 64.1073 86.0344 64.4583 85.5751 64.701C85.1244 64.9437 84.6131 65.065 84.0411 65.065C83.3998 65.065 82.8191 64.9177 82.2991 64.623C81.7791 64.3283 81.3718 63.9167 81.0771 63.388C80.7824 62.8593 80.6351 62.257 80.6351 61.581C80.6351 60.905 80.7824 60.3027 81.0771 59.774C81.3718 59.2453 81.7791 58.838 82.2991 58.552C82.8191 58.2573 83.3998 58.11 84.0411 58.11C84.5958 58.11 85.0941 58.227 85.5361 58.461C85.9868 58.6863 86.3551 59.02 86.6411 59.462V55.354H87.5641ZM84.1191 64.246C84.5958 64.246 85.0248 64.1377 85.4061 63.921C85.7961 63.6957 86.0994 63.3793 86.3161 62.972C86.5414 62.5647 86.6541 62.101 86.6541 61.581C86.6541 61.061 86.5414 60.5973 86.3161 60.19C86.0994 59.7827 85.7961 59.4707 85.4061 59.254C85.0248 59.0287 84.5958 58.916 84.1191 58.916C83.6338 58.916 83.1961 59.0287 82.8061 59.254C82.4248 59.4707 82.1214 59.7827 81.8961 60.19C81.6794 60.5973 81.5711 61.061 81.5711 61.581C81.5711 62.101 81.6794 62.5647 81.8961 62.972C82.1214 63.3793 82.4248 63.6957 82.8061 63.921C83.1961 64.1377 83.6338 64.246 84.1191 64.246ZM99.699 58.162V65H98.815V63.752C98.5723 64.168 98.2387 64.493 97.814 64.727C97.3893 64.9523 96.904 65.065 96.358 65.065C95.4653 65.065 94.759 64.818 94.239 64.324C93.7277 63.8213 93.472 63.089 93.472 62.127V58.162H94.395V62.036C94.395 62.7553 94.5727 63.3013 94.928 63.674C95.2833 64.0467 95.7903 64.233 96.449 64.233C97.1683 64.233 97.736 64.0163 98.152 63.583C98.568 63.141 98.776 62.53 98.776 61.75V58.162H99.699ZM105.768 58.11C106.626 58.11 107.306 58.3613 107.809 58.864C108.32 59.358 108.576 60.0817 108.576 61.035V65H107.653V61.126C107.653 60.4153 107.475 59.8737 107.12 59.501C106.765 59.1283 106.258 58.942 105.599 58.942C104.862 58.942 104.277 59.163 103.844 59.605C103.419 60.0383 103.207 60.6407 103.207 61.412V65H102.284V58.162H103.168V59.423C103.419 59.007 103.766 58.6863 104.208 58.461C104.659 58.227 105.179 58.11 105.768 58.11ZM117.347 55.354V65H116.463V63.648C116.186 64.1073 115.818 64.4583 115.358 64.701C114.908 64.9437 114.396 65.065 113.824 65.065C113.183 65.065 112.602 64.9177 112.082 64.623C111.562 64.3283 111.155 63.9167 110.86 63.388C110.566 62.8593 110.418 62.257 110.418 61.581C110.418 60.905 110.566 60.3027 110.86 59.774C111.155 59.2453 111.562 58.838 112.082 58.552C112.602 58.2573 113.183 58.11 113.824 58.11C114.379 58.11 114.877 58.227 115.319 58.461C115.77 58.6863 116.138 59.02 116.424 59.462V55.354H117.347ZM113.902 64.246C114.379 64.246 114.808 64.1377 115.189 63.921C115.579 63.6957 115.883 63.3793 116.099 62.972C116.325 62.5647 116.437 62.101 116.437 61.581C116.437 61.061 116.325 60.5973 116.099 60.19C115.883 59.7827 115.579 59.4707 115.189 59.254C114.808 59.0287 114.379 58.916 113.902 58.916C113.417 58.916 112.979 59.0287 112.589 59.254C112.208 59.4707 111.905 59.7827 111.679 60.19C111.463 60.5973 111.354 61.061 111.354 61.581C111.354 62.101 111.463 62.5647 111.679 62.972C111.905 63.3793 112.208 63.6957 112.589 63.921C112.979 64.1377 113.417 64.246 113.902 64.246ZM125.872 61.867H120.152C120.204 62.5777 120.477 63.154 120.971 63.596C121.465 64.0293 122.089 64.246 122.843 64.246C123.268 64.246 123.658 64.1723 124.013 64.025C124.368 63.869 124.676 63.6437 124.936 63.349L125.456 63.947C125.153 64.311 124.771 64.5883 124.312 64.779C123.861 64.9697 123.363 65.065 122.817 65.065C122.115 65.065 121.491 64.9177 120.945 64.623C120.408 64.3197 119.987 63.9037 119.684 63.375C119.381 62.8463 119.229 62.2483 119.229 61.581C119.229 60.9137 119.372 60.3157 119.658 59.787C119.953 59.2583 120.351 58.8467 120.854 58.552C121.365 58.2573 121.937 58.11 122.57 58.11C123.203 58.11 123.77 58.2573 124.273 58.552C124.776 58.8467 125.17 59.2583 125.456 59.787C125.742 60.307 125.885 60.905 125.885 61.581L125.872 61.867ZM122.57 58.903C121.911 58.903 121.357 59.1153 120.906 59.54C120.464 59.956 120.213 60.502 120.152 61.178H125.001C124.94 60.502 124.685 59.956 124.234 59.54C123.792 59.1153 123.237 58.903 122.57 58.903ZM128.648 59.501C128.864 59.0417 129.185 58.695 129.61 58.461C130.043 58.227 130.576 58.11 131.209 58.11V59.007L130.988 58.994C130.268 58.994 129.705 59.215 129.298 59.657C128.89 60.099 128.687 60.7187 128.687 61.516V65H127.764V58.162H128.648V59.501ZM134.764 65.065C134.209 65.065 133.676 64.987 133.165 64.831C132.662 64.6663 132.268 64.4627 131.982 64.22L132.398 63.492C132.684 63.7173 133.043 63.9037 133.477 64.051C133.91 64.1897 134.361 64.259 134.829 64.259C135.453 64.259 135.912 64.1637 136.207 63.973C136.51 63.7737 136.662 63.4963 136.662 63.141C136.662 62.8897 136.579 62.6947 136.415 62.556C136.25 62.4087 136.042 62.3003 135.791 62.231C135.539 62.153 135.206 62.0793 134.79 62.01C134.235 61.906 133.789 61.802 133.451 61.698C133.113 61.5853 132.822 61.399 132.58 61.139C132.346 60.879 132.229 60.5193 132.229 60.06C132.229 59.488 132.467 59.02 132.944 58.656C133.42 58.292 134.083 58.11 134.933 58.11C135.375 58.11 135.817 58.1707 136.259 58.292C136.701 58.4047 137.065 58.5563 137.351 58.747L136.948 59.488C136.384 59.098 135.713 58.903 134.933 58.903C134.343 58.903 133.897 59.007 133.594 59.215C133.299 59.423 133.152 59.696 133.152 60.034C133.152 60.294 133.234 60.502 133.399 60.658C133.572 60.814 133.784 60.931 134.036 61.009C134.287 61.0783 134.634 61.152 135.076 61.23C135.622 61.334 136.059 61.438 136.389 61.542C136.718 61.646 137 61.8237 137.234 62.075C137.468 62.3263 137.585 62.673 137.585 63.115C137.585 63.713 137.333 64.1897 136.831 64.545C136.337 64.8917 135.648 65.065 134.764 65.065ZM142.892 64.584C142.719 64.74 142.502 64.8613 142.242 64.948C141.991 65.026 141.726 65.065 141.449 65.065C140.808 65.065 140.314 64.8917 139.967 64.545C139.62 64.1983 139.447 63.7087 139.447 63.076V58.942H138.225V58.162H139.447V56.667H140.37V58.162H142.45V58.942H140.37V63.024C140.37 63.4313 140.47 63.7433 140.669 63.96C140.877 64.168 141.172 64.272 141.553 64.272C141.744 64.272 141.926 64.2417 142.099 64.181C142.281 64.1203 142.437 64.0337 142.567 63.921L142.892 64.584ZM146.964 58.11C147.857 58.11 148.541 58.3353 149.018 58.786C149.495 59.228 149.733 59.8867 149.733 60.762V65H148.849V63.934C148.641 64.2893 148.333 64.5667 147.926 64.766C147.527 64.9653 147.051 65.065 146.496 65.065C145.733 65.065 145.127 64.883 144.676 64.519C144.225 64.155 144 63.674 144 63.076C144 62.4953 144.208 62.0273 144.624 61.672C145.049 61.3167 145.72 61.139 146.639 61.139H148.81V60.723C148.81 60.1337 148.645 59.6873 148.316 59.384C147.987 59.072 147.506 58.916 146.873 58.916C146.44 58.916 146.024 58.9897 145.625 59.137C145.226 59.2757 144.884 59.4707 144.598 59.722L144.182 59.033C144.529 58.7383 144.945 58.513 145.43 58.357C145.915 58.1923 146.427 58.11 146.964 58.11ZM146.639 64.337C147.159 64.337 147.605 64.22 147.978 63.986C148.351 63.7433 148.628 63.3967 148.81 62.946V61.828H146.665C145.495 61.828 144.91 62.2353 144.91 63.05C144.91 63.4487 145.062 63.765 145.365 63.999C145.668 64.2243 146.093 64.337 146.639 64.337ZM155.724 58.11C156.582 58.11 157.262 58.3613 157.765 58.864C158.276 59.358 158.532 60.0817 158.532 61.035V65H157.609V61.126C157.609 60.4153 157.431 59.8737 157.076 59.501C156.721 59.1283 156.214 58.942 155.555 58.942C154.818 58.942 154.233 59.163 153.8 59.605C153.375 60.0383 153.163 60.6407 153.163 61.412V65H152.24V58.162H153.124V59.423C153.375 59.007 153.722 58.6863 154.164 58.461C154.615 58.227 155.135 58.11 155.724 58.11ZM167.303 55.354V65H166.419V63.648C166.142 64.1073 165.774 64.4583 165.314 64.701C164.864 64.9437 164.352 65.065 163.78 65.065C163.139 65.065 162.558 64.9177 162.038 64.623C161.518 64.3283 161.111 63.9167 160.816 63.388C160.522 62.8593 160.374 62.257 160.374 61.581C160.374 60.905 160.522 60.3027 160.816 59.774C161.111 59.2453 161.518 58.838 162.038 58.552C162.558 58.2573 163.139 58.11 163.78 58.11C164.335 58.11 164.833 58.227 165.275 58.461C165.726 58.6863 166.094 59.02 166.38 59.462V55.354H167.303ZM163.858 64.246C164.335 64.246 164.764 64.1377 165.145 63.921C165.535 63.6957 165.839 63.3793 166.055 62.972C166.281 62.5647 166.393 62.101 166.393 61.581C166.393 61.061 166.281 60.5973 166.055 60.19C165.839 59.7827 165.535 59.4707 165.145 59.254C164.764 59.0287 164.335 58.916 163.858 58.916C163.373 58.916 162.935 59.0287 162.545 59.254C162.164 59.4707 161.861 59.7827 161.635 60.19C161.419 60.5973 161.31 61.061 161.31 61.581C161.31 62.101 161.419 62.5647 161.635 62.972C161.861 63.3793 162.164 63.6957 162.545 63.921C162.935 64.1377 163.373 64.246 163.858 64.246ZM176.76 58.11C177.618 58.11 178.299 58.3613 178.801 58.864C179.313 59.358 179.568 60.0817 179.568 61.035V65H178.645V61.126C178.645 60.4153 178.468 59.8737 178.112 59.501C177.757 59.1283 177.25 58.942 176.591 58.942C175.855 58.942 175.27 59.163 174.836 59.605C174.412 60.0383 174.199 60.6407 174.199 61.412V65H173.276V55.354H174.199V59.358C174.451 58.9593 174.797 58.6517 175.239 58.435C175.681 58.2183 176.188 58.11 176.76 58.11ZM184.895 65.065C184.236 65.065 183.642 64.9177 183.114 64.623C182.585 64.3197 182.169 63.9037 181.866 63.375C181.562 62.8463 181.411 62.2483 181.411 61.581C181.411 60.9137 181.562 60.3157 181.866 59.787C182.169 59.2583 182.585 58.8467 183.114 58.552C183.642 58.2573 184.236 58.11 184.895 58.11C185.553 58.11 186.147 58.2573 186.676 58.552C187.204 58.8467 187.616 59.2583 187.911 59.787C188.214 60.3157 188.366 60.9137 188.366 61.581C188.366 62.2483 188.214 62.8463 187.911 63.375C187.616 63.9037 187.204 64.3197 186.676 64.623C186.147 64.9177 185.553 65.065 184.895 65.065ZM184.895 64.246C185.38 64.246 185.813 64.1377 186.195 63.921C186.585 63.6957 186.888 63.3793 187.105 62.972C187.321 62.5647 187.43 62.101 187.43 61.581C187.43 61.061 187.321 60.5973 187.105 60.19C186.888 59.7827 186.585 59.4707 186.195 59.254C185.813 59.0287 185.38 58.916 184.895 58.916C184.409 58.916 183.972 59.0287 183.582 59.254C183.2 59.4707 182.897 59.7827 182.672 60.19C182.455 60.5973 182.347 61.061 182.347 61.581C182.347 62.101 182.455 62.5647 182.672 62.972C182.897 63.3793 183.2 63.6957 183.582 63.921C183.972 64.1377 184.409 64.246 184.895 64.246ZM200.095 58.162L197.508 65H196.637L194.479 59.397L192.321 65H191.45L188.876 58.162H189.76L191.905 63.973L194.102 58.162H194.895L197.079 63.973L199.25 58.162H200.095ZM210.842 61.867H205.122C205.174 62.5777 205.447 63.154 205.941 63.596C206.435 64.0293 207.059 64.246 207.813 64.246C208.237 64.246 208.627 64.1723 208.983 64.025C209.338 63.869 209.646 63.6437 209.906 63.349L210.426 63.947C210.122 64.311 209.741 64.5883 209.282 64.779C208.831 64.9697 208.333 65.065 207.787 65.065C207.085 65.065 206.461 64.9177 205.915 64.623C205.377 64.3197 204.957 63.9037 204.654 63.375C204.35 62.8463 204.199 62.2483 204.199 61.581C204.199 60.9137 204.342 60.3157 204.628 59.787C204.922 59.2583 205.321 58.8467 205.824 58.552C206.335 58.2573 206.907 58.11 207.54 58.11C208.172 58.11 208.74 58.2573 209.243 58.552C209.745 58.8467 210.14 59.2583 210.426 59.787C210.712 60.307 210.855 60.905 210.855 61.581L210.842 61.867ZM207.54 58.903C206.881 58.903 206.326 59.1153 205.876 59.54C205.434 59.956 205.182 60.502 205.122 61.178H209.971C209.91 60.502 209.654 59.956 209.204 59.54C208.762 59.1153 208.207 58.903 207.54 58.903ZM214.935 58.11C215.828 58.11 216.512 58.3353 216.989 58.786C217.466 59.228 217.704 59.8867 217.704 60.762V65H216.82V63.934C216.612 64.2893 216.304 64.5667 215.897 64.766C215.498 64.9653 215.022 65.065 214.467 65.065C213.704 65.065 213.098 64.883 212.647 64.519C212.196 64.155 211.971 63.674 211.971 63.076C211.971 62.4953 212.179 62.0273 212.595 61.672C213.02 61.3167 213.691 61.139 214.61 61.139H216.781V60.723C216.781 60.1337 216.616 59.6873 216.287 59.384C215.958 59.072 215.477 58.916 214.844 58.916C214.411 58.916 213.995 58.9897 213.596 59.137C213.197 59.2757 212.855 59.4707 212.569 59.722L212.153 59.033C212.5 58.7383 212.916 58.513 213.401 58.357C213.886 58.1923 214.398 58.11 214.935 58.11ZM214.61 64.337C215.13 64.337 215.576 64.22 215.949 63.986C216.322 63.7433 216.599 63.3967 216.781 62.946V61.828H214.636C213.466 61.828 212.881 62.2353 212.881 63.05C212.881 63.4487 213.033 63.765 213.336 63.999C213.639 64.2243 214.064 64.337 214.61 64.337ZM223.07 65.065C222.394 65.065 221.788 64.9177 221.25 64.623C220.722 64.3283 220.306 63.9167 220.002 63.388C219.699 62.8507 219.547 62.2483 219.547 61.581C219.547 60.9137 219.699 60.3157 220.002 59.787C220.306 59.2583 220.722 58.8467 221.25 58.552C221.788 58.2573 222.394 58.11 223.07 58.11C223.66 58.11 224.184 58.227 224.643 58.461C225.111 58.6863 225.48 59.02 225.748 59.462L225.059 59.93C224.834 59.592 224.548 59.3407 224.201 59.176C223.855 59.0027 223.478 58.916 223.07 58.916C222.576 58.916 222.13 59.0287 221.731 59.254C221.341 59.4707 221.034 59.7827 220.808 60.19C220.592 60.5973 220.483 61.061 220.483 61.581C220.483 62.1097 220.592 62.5777 220.808 62.985C221.034 63.3837 221.341 63.6957 221.731 63.921C222.13 64.1377 222.576 64.246 223.07 64.246C223.478 64.246 223.855 64.1637 224.201 63.999C224.548 63.8343 224.834 63.583 225.059 63.245L225.748 63.713C225.48 64.155 225.111 64.493 224.643 64.727C224.175 64.9523 223.651 65.065 223.07 65.065ZM230.944 58.11C231.802 58.11 232.482 58.3613 232.985 58.864C233.496 59.358 233.752 60.0817 233.752 61.035V65H232.829V61.126C232.829 60.4153 232.651 59.8737 232.296 59.501C231.941 59.1283 231.434 58.942 230.775 58.942C230.038 58.942 229.453 59.163 229.02 59.605C228.595 60.0383 228.383 60.6407 228.383 61.412V65H227.46V55.354H228.383V59.358C228.634 58.9593 228.981 58.6517 229.423 58.435C229.865 58.2183 230.372 58.11 230.944 58.11ZM242.455 65.065C241.796 65.065 241.203 64.9177 240.674 64.623C240.145 64.3197 239.729 63.9037 239.426 63.375C239.123 62.8463 238.971 62.2483 238.971 61.581C238.971 60.9137 239.123 60.3157 239.426 59.787C239.729 59.2583 240.145 58.8467 240.674 58.552C241.203 58.2573 241.796 58.11 242.455 58.11C243.114 58.11 243.707 58.2573 244.236 58.552C244.765 58.8467 245.176 59.2583 245.471 59.787C245.774 60.3157 245.926 60.9137 245.926 61.581C245.926 62.2483 245.774 62.8463 245.471 63.375C245.176 63.9037 244.765 64.3197 244.236 64.623C243.707 64.9177 243.114 65.065 242.455 65.065ZM242.455 64.246C242.94 64.246 243.374 64.1377 243.755 63.921C244.145 63.6957 244.448 63.3793 244.665 62.972C244.882 62.5647 244.99 62.101 244.99 61.581C244.99 61.061 244.882 60.5973 244.665 60.19C244.448 59.7827 244.145 59.4707 243.755 59.254C243.374 59.0287 242.94 58.916 242.455 58.916C241.97 58.916 241.532 59.0287 241.142 59.254C240.761 59.4707 240.457 59.7827 240.232 60.19C240.015 60.5973 239.907 61.061 239.907 61.581C239.907 62.101 240.015 62.5647 240.232 62.972C240.457 63.3793 240.761 63.6957 241.142 63.921C241.532 64.1377 241.97 64.246 242.455 64.246ZM251.294 58.11C252.152 58.11 252.833 58.3613 253.335 58.864C253.847 59.358 254.102 60.0817 254.102 61.035V65H253.179V61.126C253.179 60.4153 253.002 59.8737 252.646 59.501C252.291 59.1283 251.784 58.942 251.125 58.942C250.389 58.942 249.804 59.163 249.37 59.605C248.946 60.0383 248.733 60.6407 248.733 61.412V65H247.81V58.162H248.694V59.423C248.946 59.007 249.292 58.6863 249.734 58.461C250.185 58.227 250.705 58.11 251.294 58.11ZM262.588 61.867H256.868C256.92 62.5777 257.193 63.154 257.687 63.596C258.181 64.0293 258.805 64.246 259.559 64.246C259.983 64.246 260.373 64.1723 260.729 64.025C261.084 63.869 261.392 63.6437 261.652 63.349L262.172 63.947C261.868 64.311 261.487 64.5883 261.028 64.779C260.577 64.9697 260.079 65.065 259.533 65.065C258.831 65.065 258.207 64.9177 257.661 64.623C257.123 64.3197 256.703 63.9037 256.4 63.375C256.096 62.8463 255.945 62.2483 255.945 61.581C255.945 60.9137 256.088 60.3157 256.374 59.787C256.668 59.2583 257.067 58.8467 257.57 58.552C258.081 58.2573 258.653 58.11 259.286 58.11C259.918 58.11 260.486 58.2573 260.989 58.552C261.491 58.8467 261.886 59.2583 262.172 59.787C262.458 60.307 262.601 60.905 262.601 61.581L262.588 61.867ZM259.286 58.903C258.627 58.903 258.072 59.1153 257.622 59.54C257.18 59.956 256.928 60.502 256.868 61.178H261.717C261.656 60.502 261.4 59.956 260.95 59.54C260.508 59.1153 259.953 58.903 259.286 58.903ZM270.677 65.065C270.018 65.065 269.424 64.9177 268.896 64.623C268.367 64.3197 267.951 63.9037 267.648 63.375C267.344 62.8463 267.193 62.2483 267.193 61.581C267.193 60.9137 267.344 60.3157 267.648 59.787C267.951 59.2583 268.367 58.8467 268.896 58.552C269.424 58.2573 270.018 58.11 270.677 58.11C271.335 58.11 271.929 58.2573 272.458 58.552C272.986 58.8467 273.398 59.2583 273.693 59.787C273.996 60.3157 274.148 60.9137 274.148 61.581C274.148 62.2483 273.996 62.8463 273.693 63.375C273.398 63.9037 272.986 64.3197 272.458 64.623C271.929 64.9177 271.335 65.065 270.677 65.065ZM270.677 64.246C271.162 64.246 271.595 64.1377 271.977 63.921C272.367 63.6957 272.67 63.3793 272.887 62.972C273.103 62.5647 273.212 62.101 273.212 61.581C273.212 61.061 273.103 60.5973 272.887 60.19C272.67 59.7827 272.367 59.4707 271.977 59.254C271.595 59.0287 271.162 58.916 270.677 58.916C270.191 58.916 269.754 59.0287 269.364 59.254C268.982 59.4707 268.679 59.7827 268.454 60.19C268.237 60.5973 268.129 61.061 268.129 61.581C268.129 62.101 268.237 62.5647 268.454 62.972C268.679 63.3793 268.982 63.6957 269.364 63.921C269.754 64.1377 270.191 64.246 270.677 64.246ZM278.294 56.069C277.895 56.069 277.592 56.1773 277.384 56.394C277.185 56.6107 277.085 56.9313 277.085 57.356V58.162H279.191V58.942H277.111V65H276.188V58.942H274.966V58.162H276.188V57.317C276.188 56.693 276.366 56.199 276.721 55.835C277.085 55.471 277.596 55.289 278.255 55.289C278.515 55.289 278.766 55.328 279.009 55.406C279.252 55.4753 279.455 55.5793 279.62 55.718L279.308 56.407C279.039 56.1817 278.701 56.069 278.294 56.069ZM28.082 85.065C27.4233 85.065 26.8297 84.9177 26.301 84.623C25.7723 84.3197 25.3563 83.9037 25.053 83.375C24.7497 82.8463 24.598 82.2483 24.598 81.581C24.598 80.9137 24.7497 80.3157 25.053 79.787C25.3563 79.2583 25.7723 78.8467 26.301 78.552C26.8297 78.2573 27.4233 78.11 28.082 78.11C28.7407 78.11 29.3343 78.2573 29.863 78.552C30.3917 78.8467 30.8033 79.2583 31.098 79.787C31.4013 80.3157 31.553 80.9137 31.553 81.581C31.553 82.2483 31.4013 82.8463 31.098 83.375C30.8033 83.9037 30.3917 84.3197 29.863 84.623C29.3343 84.9177 28.7407 85.065 28.082 85.065ZM28.082 84.246C28.5673 84.246 29.0007 84.1377 29.382 83.921C29.772 83.6957 30.0753 83.3793 30.292 82.972C30.5087 82.5647 30.617 82.101 30.617 81.581C30.617 81.061 30.5087 80.5973 30.292 80.19C30.0753 79.7827 29.772 79.4707 29.382 79.254C29.0007 79.0287 28.5673 78.916 28.082 78.916C27.5967 78.916 27.159 79.0287 26.769 79.254C26.3877 79.4707 26.0843 79.7827 25.859 80.19C25.6423 80.5973 25.534 81.061 25.534 81.581C25.534 82.101 25.6423 82.5647 25.859 82.972C26.0843 83.3793 26.3877 83.6957 26.769 83.921C27.159 84.1377 27.5967 84.246 28.082 84.246ZM39.5994 78.162V85H38.7154V83.752C38.4727 84.168 38.1391 84.493 37.7144 84.727C37.2897 84.9523 36.8044 85.065 36.2584 85.065C35.3657 85.065 34.6594 84.818 34.1394 84.324C33.6281 83.8213 33.3724 83.089 33.3724 82.127V78.162H34.2954V82.036C34.2954 82.7553 34.4731 83.3013 34.8284 83.674C35.1837 84.0467 35.6907 84.233 36.3494 84.233C37.0687 84.233 37.6364 84.0163 38.0524 83.583C38.4684 83.141 38.6764 82.53 38.6764 81.75V78.162H39.5994ZM43.0685 79.501C43.2851 79.0417 43.6058 78.695 44.0305 78.461C44.4638 78.227 44.9968 78.11 45.6295 78.11V79.007L45.4085 78.994C44.6891 78.994 44.1258 79.215 43.7185 79.657C43.3111 80.099 43.1075 80.7187 43.1075 81.516V85H42.1845V78.162H43.0685V79.501ZM51.6886 79.501C51.9052 79.0417 52.2259 78.695 52.6506 78.461C53.0839 78.227 53.6169 78.11 54.2496 78.11V79.007L54.0286 78.994C53.3092 78.994 52.7459 79.215 52.3386 79.657C51.9312 80.099 51.7276 80.7187 51.7276 81.516V85H50.8046V78.162H51.6886V79.501ZM58.6523 85.065C57.9936 85.065 57.4 84.9177 56.8713 84.623C56.3426 84.3197 55.9266 83.9037 55.6233 83.375C55.32 82.8463 55.1683 82.2483 55.1683 81.581C55.1683 80.9137 55.32 80.3157 55.6233 79.787C55.9266 79.2583 56.3426 78.8467 56.8713 78.552C57.4 78.2573 57.9936 78.11 58.6523 78.11C59.311 78.11 59.9046 78.2573 60.4333 78.552C60.962 78.8467 61.3736 79.2583 61.6683 79.787C61.9716 80.3157 62.1233 80.9137 62.1233 81.581C62.1233 82.2483 61.9716 82.8463 61.6683 83.375C61.3736 83.9037 60.962 84.3197 60.4333 84.623C59.9046 84.9177 59.311 85.065 58.6523 85.065ZM58.6523 84.246C59.1376 84.246 59.571 84.1377 59.9523 83.921C60.3423 83.6957 60.6456 83.3793 60.8623 82.972C61.079 82.5647 61.1873 82.101 61.1873 81.581C61.1873 81.061 61.079 80.5973 60.8623 80.19C60.6456 79.7827 60.3423 79.4707 59.9523 79.254C59.571 79.0287 59.1376 78.916 58.6523 78.916C58.167 78.916 57.7293 79.0287 57.3393 79.254C56.958 79.4707 56.6546 79.7827 56.4293 80.19C56.2126 80.5973 56.1043 81.061 56.1043 81.581C56.1043 82.101 56.2126 82.5647 56.4293 82.972C56.6546 83.3793 56.958 83.6957 57.3393 83.921C57.7293 84.1377 58.167 84.246 58.6523 84.246ZM64.0077 75.354H64.9307V85H64.0077V75.354ZM73.4529 81.867H67.7329C67.7849 82.5777 68.0579 83.154 68.5519 83.596C69.0459 84.0293 69.6699 84.246 70.4239 84.246C70.8486 84.246 71.2386 84.1723 71.5939 84.025C71.9492 83.869 72.2569 83.6437 72.5169 83.349L73.0369 83.947C72.7336 84.311 72.3522 84.5883 71.8929 84.779C71.4422 84.9697 70.9439 85.065 70.3979 85.065C69.6959 85.065 69.0719 84.9177 68.5259 84.623C67.9886 84.3197 67.5682 83.9037 67.2649 83.375C66.9616 82.8463 66.8099 82.2483 66.8099 81.581C66.8099 80.9137 66.9529 80.3157 67.2389 79.787C67.5336 79.2583 67.9322 78.8467 68.4349 78.552C68.9462 78.2573 69.5182 78.11 70.1509 78.11C70.7836 78.11 71.3512 78.2573 71.8539 78.552C72.3566 78.8467 72.7509 79.2583 73.0369 79.787C73.3229 80.307 73.4659 80.905 73.4659 81.581L73.4529 81.867ZM70.1509 78.903C69.4922 78.903 68.9376 79.1153 68.4869 79.54C68.0449 79.956 67.7936 80.502 67.7329 81.178H72.5819C72.5212 80.502 72.2656 79.956 71.8149 79.54C71.3729 79.1153 70.8182 78.903 70.1509 78.903ZM77.1776 85.065C76.623 85.065 76.09 84.987 75.5786 84.831C75.076 84.6663 74.6816 84.4627 74.3956 84.22L74.8116 83.492C75.0976 83.7173 75.4573 83.9037 75.8906 84.051C76.324 84.1897 76.7746 84.259 77.2426 84.259C77.8666 84.259 78.326 84.1637 78.6206 83.973C78.924 83.7737 79.0756 83.4963 79.0756 83.141C79.0756 82.8897 78.9933 82.6947 78.8286 82.556C78.664 82.4087 78.456 82.3003 78.2046 82.231C77.9533 82.153 77.6196 82.0793 77.2036 82.01C76.649 81.906 76.2026 81.802 75.8646 81.698C75.5266 81.5853 75.2363 81.399 74.9936 81.139C74.7596 80.879 74.6426 80.5193 74.6426 80.06C74.6426 79.488 74.881 79.02 75.3576 78.656C75.8343 78.292 76.4973 78.11 77.3466 78.11C77.7886 78.11 78.2306 78.1707 78.6726 78.292C79.1146 78.4047 79.4786 78.5563 79.7646 78.747L79.3616 79.488C78.7983 79.098 78.1266 78.903 77.3466 78.903C76.7573 78.903 76.311 79.007 76.0076 79.215C75.713 79.423 75.5656 79.696 75.5656 80.034C75.5656 80.294 75.648 80.502 75.8126 80.658C75.986 80.814 76.1983 80.931 76.4496 81.009C76.701 81.0783 77.0476 81.152 77.4896 81.23C78.0356 81.334 78.4733 81.438 78.8026 81.542C79.132 81.646 79.4136 81.8237 79.6476 82.075C79.8816 82.3263 79.9986 82.673 79.9986 83.115C79.9986 83.713 79.7473 84.1897 79.2446 84.545C78.7506 84.8917 78.0616 85.065 77.1776 85.065ZM85.1073 78.162H86.0303V85H85.1073V78.162ZM85.5753 76.667C85.3846 76.667 85.2243 76.602 85.0943 76.472C84.9643 76.342 84.8993 76.186 84.8993 76.004C84.8993 75.8307 84.9643 75.679 85.0943 75.549C85.2243 75.419 85.3846 75.354 85.5753 75.354C85.766 75.354 85.9263 75.419 86.0563 75.549C86.1863 75.6703 86.2513 75.8177 86.2513 75.991C86.2513 76.1817 86.1863 76.342 86.0563 76.472C85.9263 76.602 85.766 76.667 85.5753 76.667ZM97.1265 78.11C97.9845 78.11 98.6562 78.357 99.1415 78.851C99.6355 79.345 99.8825 80.073 99.8825 81.035V85H98.9595V81.126C98.9595 80.4153 98.7862 79.8737 98.4395 79.501C98.1015 79.1283 97.6205 78.942 96.9965 78.942C96.2859 78.942 95.7269 79.163 95.3195 79.605C94.9122 80.0383 94.7085 80.6407 94.7085 81.412V85H93.7855V81.126C93.7855 80.4153 93.6122 79.8737 93.2655 79.501C92.9275 79.1283 92.4422 78.942 91.8095 78.942C91.1075 78.942 90.5485 79.163 90.1325 79.605C89.7252 80.0383 89.5215 80.6407 89.5215 81.412V85H88.5985V78.162H89.4825V79.41C89.7252 78.994 90.0632 78.6733 90.4965 78.448C90.9299 78.2227 91.4282 78.11 91.9915 78.11C92.5635 78.11 93.0575 78.2313 93.4735 78.474C93.8982 78.7167 94.2145 79.0763 94.4225 79.553C94.6739 79.1023 95.0335 78.7513 95.5015 78.5C95.9782 78.24 96.5199 78.11 97.1265 78.11ZM105.909 78.11C106.55 78.11 107.131 78.2573 107.651 78.552C108.171 78.838 108.578 79.2453 108.873 79.774C109.167 80.3027 109.315 80.905 109.315 81.581C109.315 82.2657 109.167 82.8723 108.873 83.401C108.578 83.9297 108.171 84.3413 107.651 84.636C107.139 84.922 106.559 85.065 105.909 85.065C105.354 85.065 104.851 84.9523 104.401 84.727C103.959 84.493 103.595 84.155 103.309 83.713V87.522H102.386V78.162H103.27V79.514C103.547 79.0633 103.911 78.7167 104.362 78.474C104.821 78.2313 105.337 78.11 105.909 78.11ZM105.844 84.246C106.32 84.246 106.754 84.1377 107.144 83.921C107.534 83.6957 107.837 83.3793 108.054 82.972C108.279 82.5647 108.392 82.101 108.392 81.581C108.392 81.061 108.279 80.6017 108.054 80.203C107.837 79.7957 107.534 79.4793 107.144 79.254C106.754 79.0287 106.32 78.916 105.844 78.916C105.358 78.916 104.921 79.0287 104.531 79.254C104.149 79.4793 103.846 79.7957 103.621 80.203C103.404 80.6017 103.296 81.061 103.296 81.581C103.296 82.101 103.404 82.5647 103.621 82.972C103.846 83.3793 104.149 83.6957 104.531 83.921C104.921 84.1377 105.358 84.246 105.844 84.246ZM113.55 78.11C114.443 78.11 115.127 78.3353 115.604 78.786C116.081 79.228 116.319 79.8867 116.319 80.762V85H115.435V83.934C115.227 84.2893 114.919 84.5667 114.512 84.766C114.113 84.9653 113.637 85.065 113.082 85.065C112.319 85.065 111.713 84.883 111.262 84.519C110.811 84.155 110.586 83.674 110.586 83.076C110.586 82.4953 110.794 82.0273 111.21 81.672C111.635 81.3167 112.306 81.139 113.225 81.139H115.396V80.723C115.396 80.1337 115.231 79.6873 114.902 79.384C114.573 79.072 114.092 78.916 113.459 78.916C113.026 78.916 112.61 78.9897 112.211 79.137C111.812 79.2757 111.47 79.4707 111.184 79.722L110.768 79.033C111.115 78.7383 111.531 78.513 112.016 78.357C112.501 78.1923 113.013 78.11 113.55 78.11ZM113.225 84.337C113.745 84.337 114.191 84.22 114.564 83.986C114.937 83.7433 115.214 83.3967 115.396 82.946V81.828H113.251C112.081 81.828 111.496 82.2353 111.496 83.05C111.496 83.4487 111.648 83.765 111.951 83.999C112.254 84.2243 112.679 84.337 113.225 84.337ZM121.685 85.065C121.009 85.065 120.403 84.9177 119.865 84.623C119.337 84.3283 118.921 83.9167 118.617 83.388C118.314 82.8507 118.162 82.2483 118.162 81.581C118.162 80.9137 118.314 80.3157 118.617 79.787C118.921 79.2583 119.337 78.8467 119.865 78.552C120.403 78.2573 121.009 78.11 121.685 78.11C122.275 78.11 122.799 78.227 123.258 78.461C123.726 78.6863 124.095 79.02 124.363 79.462L123.674 79.93C123.449 79.592 123.163 79.3407 122.816 79.176C122.47 79.0027 122.093 78.916 121.685 78.916C121.191 78.916 120.745 79.0287 120.346 79.254C119.956 79.4707 119.649 79.7827 119.423 80.19C119.207 80.5973 119.098 81.061 119.098 81.581C119.098 82.1097 119.207 82.5777 119.423 82.985C119.649 83.3837 119.956 83.6957 120.346 83.921C120.745 84.1377 121.191 84.246 121.685 84.246C122.093 84.246 122.47 84.1637 122.816 83.999C123.163 83.8343 123.449 83.583 123.674 83.245L124.363 83.713C124.095 84.155 123.726 84.493 123.258 84.727C122.79 84.9523 122.266 85.065 121.685 85.065ZM129.854 84.584C129.68 84.74 129.464 84.8613 129.204 84.948C128.952 85.026 128.688 85.065 128.411 85.065C127.769 85.065 127.275 84.8917 126.929 84.545C126.582 84.1983 126.409 83.7087 126.409 83.076V78.942H125.187V78.162H126.409V76.667H127.332V78.162H129.412V78.942H127.332V83.024C127.332 83.4313 127.431 83.7433 127.631 83.96C127.839 84.168 128.133 84.272 128.515 84.272C128.705 84.272 128.887 84.2417 129.061 84.181C129.243 84.1203 129.399 84.0337 129.529 83.921L129.854 84.584ZM133.367 85.065C132.812 85.065 132.279 84.987 131.768 84.831C131.265 84.6663 130.871 84.4627 130.585 84.22L131.001 83.492C131.287 83.7173 131.647 83.9037 132.08 84.051C132.513 84.1897 132.964 84.259 133.432 84.259C134.056 84.259 134.515 84.1637 134.81 83.973C135.113 83.7737 135.265 83.4963 135.265 83.141C135.265 82.8897 135.183 82.6947 135.018 82.556C134.853 82.4087 134.645 82.3003 134.394 82.231C134.143 82.153 133.809 82.0793 133.393 82.01C132.838 81.906 132.392 81.802 132.054 81.698C131.716 81.5853 131.426 81.399 131.183 81.139C130.949 80.879 130.832 80.5193 130.832 80.06C130.832 79.488 131.07 79.02 131.547 78.656C132.024 78.292 132.687 78.11 133.536 78.11C133.978 78.11 134.42 78.1707 134.862 78.292C135.304 78.4047 135.668 78.5563 135.954 78.747L135.551 79.488C134.988 79.098 134.316 78.903 133.536 78.903C132.947 78.903 132.5 79.007 132.197 79.215C131.902 79.423 131.755 79.696 131.755 80.034C131.755 80.294 131.837 80.502 132.002 80.658C132.175 80.814 132.388 80.931 132.639 81.009C132.89 81.0783 133.237 81.152 133.679 81.23C134.225 81.334 134.663 81.438 134.992 81.542C135.321 81.646 135.603 81.8237 135.837 82.075C136.071 82.3263 136.188 82.673 136.188 83.115C136.188 83.713 135.937 84.1897 135.434 84.545C134.94 84.8917 134.251 85.065 133.367 85.065ZM147.043 78.162L143.624 85.819C143.346 86.4603 143.026 86.9153 142.662 87.184C142.298 87.4527 141.86 87.587 141.349 87.587C141.019 87.587 140.712 87.535 140.426 87.431C140.14 87.327 139.893 87.171 139.685 86.963L140.114 86.274C140.46 86.6207 140.876 86.794 141.362 86.794C141.674 86.794 141.938 86.7073 142.155 86.534C142.38 86.3607 142.588 86.066 142.779 85.65L143.078 84.987L140.023 78.162H140.985L143.559 83.973L146.133 78.162H147.043ZM150.947 85.065C150.289 85.065 149.695 84.9177 149.166 84.623C148.638 84.3197 148.222 83.9037 147.918 83.375C147.615 82.8463 147.463 82.2483 147.463 81.581C147.463 80.9137 147.615 80.3157 147.918 79.787C148.222 79.2583 148.638 78.8467 149.166 78.552C149.695 78.2573 150.289 78.11 150.947 78.11C151.606 78.11 152.2 78.2573 152.728 78.552C153.257 78.8467 153.669 79.2583 153.963 79.787C154.267 80.3157 154.418 80.9137 154.418 81.581C154.418 82.2483 154.267 82.8463 153.963 83.375C153.669 83.9037 153.257 84.3197 152.728 84.623C152.2 84.9177 151.606 85.065 150.947 85.065ZM150.947 84.246C151.433 84.246 151.866 84.1377 152.247 83.921C152.637 83.6957 152.941 83.3793 153.157 82.972C153.374 82.5647 153.482 82.101 153.482 81.581C153.482 81.061 153.374 80.5973 153.157 80.19C152.941 79.7827 152.637 79.4707 152.247 79.254C151.866 79.0287 151.433 78.916 150.947 78.916C150.462 78.916 150.024 79.0287 149.634 79.254C149.253 79.4707 148.95 79.7827 148.724 80.19C148.508 80.5973 148.399 81.061 148.399 81.581C148.399 82.101 148.508 82.5647 148.724 82.972C148.95 83.3793 149.253 83.6957 149.634 83.921C150.024 84.1377 150.462 84.246 150.947 84.246ZM162.465 78.162V85H161.581V83.752C161.338 84.168 161.004 84.493 160.58 84.727C160.155 84.9523 159.67 85.065 159.124 85.065C158.231 85.065 157.525 84.818 157.005 84.324C156.493 83.8213 156.238 83.089 156.238 82.127V78.162H157.161V82.036C157.161 82.7553 157.338 83.3013 157.694 83.674C158.049 84.0467 158.556 84.233 159.215 84.233C159.934 84.233 160.502 84.0163 160.918 83.583C161.334 83.141 161.542 82.53 161.542 81.75V78.162H162.465ZM165.934 79.501C166.15 79.0417 166.471 78.695 166.896 78.461C167.329 78.227 167.862 78.11 168.495 78.11V79.007L168.274 78.994C167.554 78.994 166.991 79.215 166.584 79.657C166.176 80.099 165.973 80.7187 165.973 81.516V85H165.05V78.162H165.934V79.501ZM177.193 78.11C177.834 78.11 178.415 78.2573 178.935 78.552C179.455 78.838 179.862 79.2453 180.157 79.774C180.451 80.3027 180.599 80.905 180.599 81.581C180.599 82.2657 180.451 82.8723 180.157 83.401C179.862 83.9297 179.455 84.3413 178.935 84.636C178.423 84.922 177.843 85.065 177.193 85.065C176.638 85.065 176.135 84.9523 175.685 84.727C175.243 84.493 174.879 84.155 174.593 83.713V87.522H173.67V78.162H174.554V79.514C174.831 79.0633 175.195 78.7167 175.646 78.474C176.105 78.2313 176.621 78.11 177.193 78.11ZM177.128 84.246C177.604 84.246 178.038 84.1377 178.428 83.921C178.818 83.6957 179.121 83.3793 179.338 82.972C179.563 82.5647 179.676 82.101 179.676 81.581C179.676 81.061 179.563 80.6017 179.338 80.203C179.121 79.7957 178.818 79.4793 178.428 79.254C178.038 79.0287 177.604 78.916 177.128 78.916C176.642 78.916 176.205 79.0287 175.815 79.254C175.433 79.4793 175.13 79.7957 174.905 80.203C174.688 80.6017 174.58 81.061 174.58 81.581C174.58 82.101 174.688 82.5647 174.905 82.972C175.13 83.3793 175.433 83.6957 175.815 83.921C176.205 84.1377 176.642 84.246 177.128 84.246ZM182.48 75.354H183.403V85H182.48V75.354ZM188.364 78.11C189.256 78.11 189.941 78.3353 190.418 78.786C190.894 79.228 191.133 79.8867 191.133 80.762V85H190.249V83.934C190.041 84.2893 189.733 84.5667 189.326 84.766C188.927 84.9653 188.45 85.065 187.896 85.065C187.133 85.065 186.526 84.883 186.076 84.519C185.625 84.155 185.4 83.674 185.4 83.076C185.4 82.4953 185.608 82.0273 186.024 81.672C186.448 81.3167 187.12 81.139 188.039 81.139H190.21V80.723C190.21 80.1337 190.045 79.6873 189.716 79.384C189.386 79.072 188.905 78.916 188.273 78.916C187.839 78.916 187.423 78.9897 187.025 79.137C186.626 79.2757 186.284 79.4707 185.998 79.722L185.582 79.033C185.928 78.7383 186.344 78.513 186.83 78.357C187.315 78.1923 187.826 78.11 188.364 78.11ZM188.039 84.337C188.559 84.337 189.005 84.22 189.378 83.986C189.75 83.7433 190.028 83.3967 190.21 82.946V81.828H188.065C186.895 81.828 186.31 82.2353 186.31 83.05C186.31 83.4487 186.461 83.765 186.765 83.999C187.068 84.2243 187.493 84.337 188.039 84.337ZM197.124 78.11C197.982 78.11 198.662 78.3613 199.165 78.864C199.676 79.358 199.932 80.0817 199.932 81.035V85H199.009V81.126C199.009 80.4153 198.831 79.8737 198.476 79.501C198.12 79.1283 197.613 78.942 196.955 78.942C196.218 78.942 195.633 79.163 195.2 79.605C194.775 80.0383 194.563 80.6407 194.563 81.412V85H193.64V78.162H194.524V79.423C194.775 79.007 195.122 78.6863 195.564 78.461C196.014 78.227 196.534 78.11 197.124 78.11ZM209.324 78.11C210.182 78.11 210.862 78.3613 211.365 78.864C211.876 79.358 212.132 80.0817 212.132 81.035V85H211.209V81.126C211.209 80.4153 211.031 79.8737 210.676 79.501C210.32 79.1283 209.813 78.942 209.155 78.942C208.418 78.942 207.833 79.163 207.4 79.605C206.975 80.0383 206.763 80.6407 206.763 81.412V85H205.84V75.354H206.763V79.358C207.014 78.9593 207.361 78.6517 207.803 78.435C208.245 78.2183 208.752 78.11 209.324 78.11ZM217.458 85.065C216.799 85.065 216.206 84.9177 215.677 84.623C215.148 84.3197 214.732 83.9037 214.429 83.375C214.126 82.8463 213.974 82.2483 213.974 81.581C213.974 80.9137 214.126 80.3157 214.429 79.787C214.732 79.2583 215.148 78.8467 215.677 78.552C216.206 78.2573 216.799 78.11 217.458 78.11C218.117 78.11 218.71 78.2573 219.239 78.552C219.768 78.8467 220.179 79.2583 220.474 79.787C220.777 80.3157 220.929 80.9137 220.929 81.581C220.929 82.2483 220.777 82.8463 220.474 83.375C220.179 83.9037 219.768 84.3197 219.239 84.623C218.71 84.9177 218.117 85.065 217.458 85.065ZM217.458 84.246C217.943 84.246 218.377 84.1377 218.758 83.921C219.148 83.6957 219.451 83.3793 219.668 82.972C219.885 82.5647 219.993 82.101 219.993 81.581C219.993 81.061 219.885 80.5973 219.668 80.19C219.451 79.7827 219.148 79.4707 218.758 79.254C218.377 79.0287 217.943 78.916 217.458 78.916C216.973 78.916 216.535 79.0287 216.145 79.254C215.764 79.4707 215.46 79.7827 215.235 80.19C215.018 80.5973 214.91 81.061 214.91 81.581C214.91 82.101 215.018 82.5647 215.235 82.972C215.46 83.3793 215.764 83.6957 216.145 83.921C216.535 84.1377 216.973 84.246 217.458 84.246ZM222.813 75.354H223.736V85H222.813V75.354ZM226.305 78.162H227.228V85H226.305V78.162ZM226.773 76.667C226.582 76.667 226.422 76.602 226.292 76.472C226.162 76.342 226.097 76.186 226.097 76.004C226.097 75.8307 226.162 75.679 226.292 75.549C226.422 75.419 226.582 75.354 226.773 75.354C226.963 75.354 227.124 75.419 227.254 75.549C227.384 75.6703 227.449 75.8177 227.449 75.991C227.449 76.1817 227.384 76.342 227.254 76.472C227.124 76.602 226.963 76.667 226.773 76.667ZM231.629 85.065C231.074 85.065 230.541 84.987 230.03 84.831C229.527 84.6663 229.133 84.4627 228.847 84.22L229.263 83.492C229.549 83.7173 229.908 83.9037 230.342 84.051C230.775 84.1897 231.226 84.259 231.694 84.259C232.318 84.259 232.777 84.1637 233.072 83.973C233.375 83.7737 233.527 83.4963 233.527 83.141C233.527 82.8897 233.444 82.6947 233.28 82.556C233.115 82.4087 232.907 82.3003 232.656 82.231C232.404 82.153 232.071 82.0793 231.655 82.01C231.1 81.906 230.654 81.802 230.316 81.698C229.978 81.5853 229.687 81.399 229.445 81.139C229.211 80.879 229.094 80.5193 229.094 80.06C229.094 79.488 229.332 79.02 229.809 78.656C230.285 78.292 230.948 78.11 231.798 78.11C232.24 78.11 232.682 78.1707 233.124 78.292C233.566 78.4047 233.93 78.5563 234.216 78.747L233.813 79.488C233.249 79.098 232.578 78.903 231.798 78.903C231.208 78.903 230.762 79.007 230.459 79.215C230.164 79.423 230.017 79.696 230.017 80.034C230.017 80.294 230.099 80.502 230.264 80.658C230.437 80.814 230.649 80.931 230.901 81.009C231.152 81.0783 231.499 81.152 231.941 81.23C232.487 81.334 232.924 81.438 233.254 81.542C233.583 81.646 233.865 81.8237 234.099 82.075C234.333 82.3263 234.45 82.673 234.45 83.115C234.45 83.713 234.198 84.1897 233.696 84.545C233.202 84.8917 232.513 85.065 231.629 85.065ZM239.757 84.584C239.584 84.74 239.367 84.8613 239.107 84.948C238.856 85.026 238.591 85.065 238.314 85.065C237.673 85.065 237.179 84.8917 236.832 84.545C236.485 84.1983 236.312 83.7087 236.312 83.076V78.942H235.09V78.162H236.312V76.667H237.235V78.162H239.315V78.942H237.235V83.024C237.235 83.4313 237.335 83.7433 237.534 83.96C237.742 84.168 238.037 84.272 238.418 84.272C238.609 84.272 238.791 84.2417 238.964 84.181C239.146 84.1203 239.302 84.0337 239.432 83.921L239.757 84.584ZM241.437 78.162H242.36V85H241.437V78.162ZM241.905 76.667C241.715 76.667 241.554 76.602 241.424 76.472C241.294 76.342 241.229 76.186 241.229 76.004C241.229 75.8307 241.294 75.679 241.424 75.549C241.554 75.419 241.715 75.354 241.905 75.354C242.096 75.354 242.256 75.419 242.386 75.549C242.516 75.6703 242.581 75.8177 242.581 75.991C242.581 76.1817 242.516 76.342 242.386 76.472C242.256 76.602 242.096 76.667 241.905 76.667ZM247.763 85.065C247.087 85.065 246.48 84.9177 245.943 84.623C245.414 84.3283 244.998 83.9167 244.695 83.388C244.391 82.8507 244.24 82.2483 244.24 81.581C244.24 80.9137 244.391 80.3157 244.695 79.787C244.998 79.2583 245.414 78.8467 245.943 78.552C246.48 78.2573 247.087 78.11 247.763 78.11C248.352 78.11 248.876 78.227 249.336 78.461C249.804 78.6863 250.172 79.02 250.441 79.462L249.752 79.93C249.526 79.592 249.24 79.3407 248.894 79.176C248.547 79.0027 248.17 78.916 247.763 78.916C247.269 78.916 246.822 79.0287 246.424 79.254C246.034 79.4707 245.726 79.7827 245.501 80.19C245.284 80.5973 245.176 81.061 245.176 81.581C245.176 82.1097 245.284 82.5777 245.501 82.985C245.726 83.3837 246.034 83.6957 246.424 83.921C246.822 84.1377 247.269 84.246 247.763 84.246C248.17 84.246 248.547 84.1637 248.894 83.999C249.24 83.8343 249.526 83.583 249.752 83.245L250.441 83.713C250.172 84.155 249.804 84.493 249.336 84.727C248.868 84.9523 248.343 85.065 247.763 85.065ZM254.646 78.11C255.538 78.11 256.223 78.3353 256.7 78.786C257.176 79.228 257.415 79.8867 257.415 80.762V85H256.531V83.934C256.323 84.2893 256.015 84.5667 255.608 84.766C255.209 84.9653 254.732 85.065 254.178 85.065C253.415 85.065 252.808 84.883 252.358 84.519C251.907 84.155 251.682 83.674 251.682 83.076C251.682 82.4953 251.89 82.0273 252.306 81.672C252.73 81.3167 253.402 81.139 254.321 81.139H256.492V80.723C256.492 80.1337 256.327 79.6873 255.998 79.384C255.668 79.072 255.187 78.916 254.555 78.916C254.121 78.916 253.705 78.9897 253.307 79.137C252.908 79.2757 252.566 79.4707 252.28 79.722L251.864 79.033C252.21 78.7383 252.626 78.513 253.112 78.357C253.597 78.1923 254.108 78.11 254.646 78.11ZM254.321 84.337C254.841 84.337 255.287 84.22 255.66 83.986C256.032 83.7433 256.31 83.3967 256.492 82.946V81.828H254.347C253.177 81.828 252.592 82.2353 252.592 83.05C252.592 83.4487 252.743 83.765 253.047 83.999C253.35 84.2243 253.775 84.337 254.321 84.337ZM259.922 75.354H260.845V85H259.922V75.354ZM263.413 75.354H264.336V85H263.413V75.354ZM272.65 78.162L269.231 85.819C268.954 86.4603 268.633 86.9153 268.269 87.184C267.905 87.4527 267.468 87.587 266.956 87.587C266.627 87.587 266.319 87.535 266.033 87.431C265.747 87.327 265.5 87.171 265.292 86.963L265.721 86.274C266.068 86.6207 266.484 86.794 266.969 86.794C267.281 86.794 267.546 86.7073 267.762 86.534C267.988 86.3607 268.196 86.066 268.386 85.65L268.685 84.987L265.63 78.162H266.592L269.166 83.973L271.74 78.162H272.65ZM273.597 85.065C273.406 85.065 273.241 84.9957 273.103 84.857C272.973 84.7183 272.908 84.5493 272.908 84.35C272.908 84.1507 272.973 83.986 273.103 83.856C273.241 83.7173 273.406 83.648 273.597 83.648C273.787 83.648 273.952 83.7173 274.091 83.856C274.229 83.986 274.299 84.1507 274.299 84.35C274.299 84.5493 274.229 84.7183 274.091 84.857C273.952 84.9957 273.787 85.065 273.597 85.065Z" fill="white"/>
<defs>
<filter id="filter0_d_7751_10" x="0" y="7" width="316" height="109" filterUnits="userSpaceOnUse" color-interpolation-filters="sRGB">
<feFlood flood-opacity="0" result="BackgroundImageFix"/>
<feColorMatrix in="SourceAlpha" type="matrix" values="0 0 0 0 0 0 0 0 0 0 0 0 0 0 0 0 0 0 127 0" result="hardAlpha"/>
<feOffset dy="4"/>
<feGaussianBlur stdDeviation="4"/>
<feColorMatrix type="matrix" values="0 0 0 0 0 0 0 0 0 0 0 0 0 0 0 0 0 0 0.08 0"/>
<feBlend mode="normal" in2="BackgroundImageFix" result="effect1_dropShadow_7751_10"/>
<feBlend mode="normal" in="SourceGraphic" in2="effect1_dropShadow_7751_10" result="shape"/>
</filter>
</defs>
</svg>
